HIERARCHY
ROOT Hips
{
	OFFSET 0.000000 71.427986 0.000000
	CHANNELS 6 Xposition Yposition Zposition Xrotation Yrotation Zrotation
	JOINT Pelvis
	{
		OFFSET 0.000000 0.000000 0.000000
		CHANNELS 3 Xrotation Yrotation Zrotation
		JOINT LeftUpLeg
		{
			OFFSET 6.797100 -2.508499 -1.318700
			CHANNELS 3 Xrotation Yrotation Zrotation
			JOINT LeftLeg
			{
				OFFSET 0.069008 -29.241863 0.690200
				CHANNELS 3 Xrotation Yrotation Zrotation
				JOINT LeftFoot
				{
					OFFSET -0.069008 -29.568123 -0.266800
					CHANNELS 3 Xrotation Yrotation Zrotation
					JOINT LeftToeBase
					{
						OFFSET 3.145500 -8.631000 16.059900
						CHANNELS 3 Xrotation Yrotation Zrotation
						End Site
						{
							OFFSET 0.000000 18.501587 0.000000
						}
					}
				}
			}
			JOINT Left_ShortSleeve
			{
				OFFSET 0.265923 -10.480953 1.153800
				CHANNELS 3 Xrotation Yrotation Zrotation
				End Site
				{
					OFFSET 1.725763 19.823879 0.000000
				}
			}
		}
		JOINT RightUpLeg
		{
			OFFSET -6.797100 -2.508499 -1.318700
			CHANNELS 3 Xrotation Yrotation Zrotation
			JOINT RightLeg
			{
				OFFSET -0.082453 -29.241932 0.688000
				CHANNELS 3 Xrotation Yrotation Zrotation
				JOINT RightFoot
				{
					OFFSET 0.082453 -29.568058 -0.264600
					CHANNELS 3 Xrotation Yrotation Zrotation
					JOINT RightToeBase
					{
						OFFSET -3.115300 -8.682800 16.113400
						CHANNELS 3 Xrotation Yrotation Zrotation
						End Site
						{
							OFFSET 0.000000 18.567114 0.000000
						}
					}
				}
			}
			JOINT Right_ShortSleeve
			{
				OFFSET -0.265923 -10.480953 1.153800
				CHANNELS 3 Xrotation Yrotation Zrotation
				End Site
				{
					OFFSET -1.725766 19.823910 0.000000
				}
			}
		}
	}
	JOINT Spine
	{
		OFFSET 0.000000 13.368103 0.470500
		CHANNELS 3 Xrotation Yrotation Zrotation
		JOINT Spine1
		{
			OFFSET 0.147000 13.837402 0.538800
			CHANNELS 3 Xrotation Yrotation Zrotation
			JOINT Spine2
			{
				OFFSET 0.168000 16.242897 -1.435500
				CHANNELS 3 Xrotation Yrotation Zrotation
				JOINT Neck
				{
					OFFSET 0.217200 18.631500 -1.679100
					CHANNELS 3 Xrotation Yrotation Zrotation
					JOINT Head
					{
						OFFSET 0.000000 6.599396 1.385900
						CHANNELS 3 Xrotation Yrotation Zrotation
						JOINT Hat
						{
							OFFSET -0.532200 27.220596 -10.096100
							CHANNELS 3 Xrotation Yrotation Zrotation
							End Site
							{
								OFFSET 0.000000 22.029861 0.000000
							}
						}
						JOINT HairD
						{
							OFFSET -10.777400 17.437393 -1.325900
							CHANNELS 3 Xrotation Yrotation Zrotation
							JOINT HairD1
							{
								OFFSET -3.290299 -11.051193 1.062200
								CHANNELS 3 Xrotation Yrotation Zrotation
								End Site
								{
									OFFSET 0.000000 11.579437 0.000000
								}
							}
						}
						JOINT HairB
						{
							OFFSET -10.777400 17.437393 1.467900
							CHANNELS 3 Xrotation Yrotation Zrotation
							JOINT HairB1
							{
								OFFSET -1.561200 -12.956299 3.590200
								CHANNELS 3 Xrotation Yrotation Zrotation
								End Site
								{
									OFFSET 0.000000 13.534866 0.000000
								}
							}
						}
						JOINT HairA
						{
							OFFSET 9.713100 17.437393 1.467900
							CHANNELS 3 Xrotation Yrotation Zrotation
							JOINT HairA1
							{
								OFFSET 1.561200 -12.956299 3.590200
								CHANNELS 3 Xrotation Yrotation Zrotation
								End Site
								{
									OFFSET 0.000000 13.534866 0.000000
								}
							}
						}
						JOINT HairC
						{
							OFFSET 9.713100 17.437393 -1.325900
							CHANNELS 3 Xrotation Yrotation Zrotation
							JOINT HairC1
							{
								OFFSET 3.290300 -11.051193 1.062200
								CHANNELS 3 Xrotation Yrotation Zrotation
								End Site
								{
									OFFSET 0.000000 11.579437 0.000000
								}
							}
						}
					}
				}
				JOINT LeftShoulder
				{
					OFFSET 5.101800 15.108002 -2.763700
					CHANNELS 3 Xrotation Yrotation Zrotation
					JOINT LeftArm
					{
						OFFSET 9.825497 2.506317 -1.597400
						CHANNELS 3 Xrotation Yrotation Zrotation
						JOINT LeftForeArm
						{
							OFFSET 21.966244 0.000000 0.000000
							CHANNELS 3 Xrotation Yrotation Zrotation
							JOINT LeftHand
							{
								OFFSET 33.879036 0.000000 0.000000
								CHANNELS 3 Xrotation Yrotation Zrotation
								JOINT LeftHandThumb1
								{
									OFFSET 6.715286 -2.359680 3.363841
									CHANNELS 3 Xrotation Yrotation Zrotation
									JOINT LeftHandThumb2
									{
										OFFSET 2.507072 -1.447464 1.447461
										CHANNELS 3 Xrotation Yrotation Zrotation
										JOINT LeftHandThumb3
										{
											OFFSET 2.898338 -1.673355 1.673357
											CHANNELS 3 Xrotation Yrotation Zrotation
											End Site
											{
												OFFSET -0.295959 3.727692 -0.131651
											}
										}
									}
								}
								JOINT LeftHandIndex1
								{
									OFFSET 14.190811 -0.254547 3.840278
									CHANNELS 3 Xrotation Yrotation Zrotation
									JOINT LeftHandIndex2
									{
										OFFSET 3.551727 0.000000 -0.000000
										CHANNELS 3 Xrotation Yrotation Zrotation
										JOINT LeftHandIndex3
										{
											OFFSET 2.894196 0.000000 0.000000
											CHANNELS 3 Xrotation Yrotation Zrotation
											End Site
											{
												OFFSET -1.000603 2.690872 0.366626
											}
										}
									}
								}
								JOINT LeftHandMiddle1
								{
									OFFSET 13.776489 0.000000 0.000000
									CHANNELS 3 Xrotation Yrotation Zrotation
									JOINT LeftHandMiddle2
									{
										OFFSET 3.438232 0.000000 0.000000
										CHANNELS 3 Xrotation Yrotation Zrotation
										JOINT LeftHandMiddle3
										{
											OFFSET 3.691551 0.000000 0.000000
											CHANNELS 3 Xrotation Yrotation Zrotation
											End Site
											{
												OFFSET -1.082298 3.499527 0.457670
											}
										}
									}
								}
								JOINT LeftHandRing1
								{
									OFFSET 13.966164 -0.268127 -3.067488
									CHANNELS 3 Xrotation Yrotation Zrotation
									JOINT LeftHandRing2
									{
										OFFSET 3.162567 0.000000 0.000000
										CHANNELS 3 Xrotation Yrotation Zrotation
										JOINT LeftHandRing3
										{
											OFFSET 3.324348 0.000000 0.000000
											CHANNELS 3 Xrotation Yrotation Zrotation
											End Site
											{
												OFFSET -0.861900 3.184998 0.405154
											}
										}
									}
								}
								JOINT LeftHandPinky1
								{
									OFFSET 13.131393 -0.168503 -5.746925
									CHANNELS 3 Xrotation Yrotation Zrotation
									JOINT LeftHandPinky2
									{
										OFFSET 2.849182 0.000000 0.000000
										CHANNELS 3 Xrotation Yrotation Zrotation
										JOINT LeftHandPinky3
										{
											OFFSET 2.805038 0.000000 0.000000
											CHANNELS 3 Xrotation Yrotation Zrotation
											End Site
											{
												OFFSET -0.882500 2.642609 0.325652
											}
										}
									}
								}
							}
							JOINT Left_Sleeve
							{
								OFFSET 6.592125 -0.646545 0.805568
								CHANNELS 3 Xrotation Yrotation Zrotation
								End Site
								{
									OFFSET -0.000179 20.275787 -0.000000
								}
							}
						}
					}
				}
				JOINT RightShoulder
				{
					OFFSET -5.731700 15.108002 -2.763700
					CHANNELS 3 Xrotation Yrotation Zrotation
					JOINT RightArm
					{
						OFFSET -9.825497 2.506317 -1.597400
						CHANNELS 3 Xrotation Yrotation Zrotation
						JOINT RightForeArm
						{
							OFFSET -21.966242 0.000000 0.000000
							CHANNELS 3 Xrotation Yrotation Zrotation
							JOINT RightHand
							{
								OFFSET -33.879032 0.000000 0.000000
								CHANNELS 3 Xrotation Yrotation Zrotation
								JOINT RightHandThumb1
								{
									OFFSET -6.715286 -2.359680 3.363841
									CHANNELS 3 Xrotation Yrotation Zrotation
									JOINT RightHandThumb2
									{
										OFFSET -2.507072 -1.447464 1.447461
										CHANNELS 3 Xrotation Yrotation Zrotation
										JOINT RightHandThumb3
										{
											OFFSET -2.898338 -1.673355 1.673357
											CHANNELS 3 Xrotation Yrotation Zrotation
											End Site
											{
												OFFSET 0.295959 3.727692 -0.131651
											}
										}
									}
								}
								JOINT RightHandIndex1
								{
									OFFSET -14.190811 -0.254547 3.840278
									CHANNELS 3 Xrotation Yrotation Zrotation
									JOINT RightHandIndex2
									{
										OFFSET -3.551727 0.000000 -0.000000
										CHANNELS 3 Xrotation Yrotation Zrotation
										JOINT RightHandIndex3
										{
											OFFSET -2.894196 0.000000 0.000000
											CHANNELS 3 Xrotation Yrotation Zrotation
											End Site
											{
												OFFSET 1.000603 2.690872 0.366626
											}
										}
									}
								}
								JOINT RightHandMiddle1
								{
									OFFSET -13.776489 0.000000 0.000000
									CHANNELS 3 Xrotation Yrotation Zrotation
									JOINT RightHandMiddle2
									{
										OFFSET -3.438232 0.000000 0.000000
										CHANNELS 3 Xrotation Yrotation Zrotation
										JOINT RightHandMiddle3
										{
											OFFSET -3.691551 0.000000 0.000000
											CHANNELS 3 Xrotation Yrotation Zrotation
											End Site
											{
												OFFSET 1.082298 3.499527 0.457670
											}
										}
									}
								}
								JOINT RightHandRing1
								{
									OFFSET -13.966164 -0.268127 -3.067488
									CHANNELS 3 Xrotation Yrotation Zrotation
									JOINT RightHandRing2
									{
										OFFSET -3.162567 0.000000 0.000000
										CHANNELS 3 Xrotation Yrotation Zrotation
										JOINT RightHandRing3
										{
											OFFSET -3.324348 0.000000 0.000000
											CHANNELS 3 Xrotation Yrotation Zrotation
											End Site
											{
												OFFSET 0.861900 3.184998 0.405154
											}
										}
									}
								}
								JOINT RightHandPinky1
								{
									OFFSET -13.131393 -0.168503 -5.746925
									CHANNELS 3 Xrotation Yrotation Zrotation
									JOINT RightHandPinky2
									{
										OFFSET -2.849182 0.000000 0.000000
										CHANNELS 3 Xrotation Yrotation Zrotation
										JOINT RightHandPinky3
										{
											OFFSET -2.805038 0.000000 0.000000
											CHANNELS 3 Xrotation Yrotation Zrotation
											End Site
											{
												OFFSET 0.882500 2.642609 0.325652
											}
										}
									}
								}
							}
							JOINT Right_Sleeve
							{
								OFFSET -6.592125 -0.646545 0.805568
								CHANNELS 3 Xrotation Yrotation Zrotation
								End Site
								{
									OFFSET 0.000179 20.275787 -0.000000
								}
							}
						}
					}
				}
				JOINT Bind_Right_JacketString
				{
					OFFSET -3.534800 11.969597 7.200700
					CHANNELS 3 Xrotation Yrotation Zrotation
					JOINT Bind_Right_JacketString1
					{
						OFFSET -0.319900 -6.102600 2.794100
						CHANNELS 3 Xrotation Yrotation Zrotation
						End Site
						{
							OFFSET 0.000000 6.719452 0.000000
						}
					}
				}
				JOINT Bind_Left_JacketString
				{
					OFFSET 2.904800 11.969597 7.200700
					CHANNELS 3 Xrotation Yrotation Zrotation
					JOINT Bind_Left_JacketString1
					{
						OFFSET 0.364800 -5.904503 3.186800
						CHANNELS 3 Xrotation Yrotation Zrotation
						End Site
						{
							OFFSET 0.000000 6.719513 0.000000
						}
					}
				}
				JOINT HairE
				{
					OFFSET 5.915200 17.612701 -11.592200
					CHANNELS 3 Xrotation Yrotation Zrotation
					JOINT HairE1
					{
						OFFSET 0.289200 -7.171898 -1.284500
						CHANNELS 3 Xrotation Yrotation Zrotation
						End Site
						{
							OFFSET 0.000000 7.291756 0.000000
						}
					}
				}
				JOINT HairF
				{
					OFFSET -0.864800 17.612701 -11.592200
					CHANNELS 3 Xrotation Yrotation Zrotation
					JOINT HairF1
					{
						OFFSET 0.000000 -14.087097 -2.127501
						CHANNELS 3 Xrotation Yrotation Zrotation
						End Site
						{
							OFFSET 0.000000 14.246841 0.000000
						}
					}
				}
				JOINT HairG
				{
					OFFSET -8.087700 17.612701 -11.592200
					CHANNELS 3 Xrotation Yrotation Zrotation
					JOINT HairG1
					{
						OFFSET -0.293600 -6.081398 -0.910100
						CHANNELS 3 Xrotation Yrotation Zrotation
						End Site
						{
							OFFSET 0.000000 6.156120 0.000000
						}
					}
				}
			}
		}
	}
	JOINT Pouch
	{
		OFFSET 0.000000 4.394501 10.847300
		CHANNELS 3 Xrotation Yrotation Zrotation
		End Site
		{
			OFFSET 0.000000 21.880577 0.000000
		}
	}
	JOINT Bag
	{
		OFFSET -13.229000 4.813004 -0.593300
		CHANNELS 3 Xrotation Yrotation Zrotation
		End Site
		{
			OFFSET 0.000000 21.880577 0.000000
		}
	}
	JOINT OccupyGuyFacialAnim_Joint
	{
		OFFSET 1.000000 -70.206398 -1.655000
		CHANNELS 3 Xrotation Yrotation Zrotation
		End Site
		{
			OFFSET 0.000000 21.880577 0.000000
		}
	}
}
MOTION
Frames: 4
Frame Time: 0.016667
-0.169971 97.509239 -0.244470 5.880429 -20.335883 11.095772 -0.000000 -0.000001 -0.000000 -87.615372 -3.914276 24.870566 54.796921 -5.261283 -14.022254 9.931270 -8.288088 11.832767 0.000001 -0.000000 -0.000000 -0.000000 -0.000000 0.000000 -92.882554 4.491635 9.508634 126.621284 -8.168894 -2.303358 22.602353 1.847010 -3.583957 -0.000001 -0.000000 0.000001 0.000000 0.000000 0.000000 34.354909 -6.138093 -11.177037 -1.919983 -0.704206 -1.068982 -1.861951 -0.963998 -0.958723 -27.161325 7.980848 9.093855 17.861669 13.973911 -17.635106 0.000002 -0.000000 0.000000 0.000002 -0.000000 0.000000 0.000002 -0.000000 0.000001 0.000002 -0.000000 0.000001 0.000002 -0.000000 0.000001 0.000002 -0.000000 0.000001 0.000002 -0.000000 0.000001 0.000002 -0.000000 0.000000 0.000002 -0.000000 0.000000 14.342933 -28.036221 31.312978 -54.053308 10.158295 9.211016 -39.508673 -62.618348 -18.464458 0.677880 -3.694915 5.616513 -4.212044 -7.549092 8.222289 2.840615 18.398108 -2.239074 -0.000000 -0.000001 -0.000003 13.557846 -2.400529 2.442060 -0.158538 0.312400 -41.706884 0.000001 -0.000001 -0.000002 8.872539 -0.946684 -8.698849 0.333523 0.702992 -39.129778 0.000001 0.000001 0.000003 6.417774 2.640969 -21.662585 0.073907 0.361664 -38.094007 -0.000001 0.000001 -0.000001 -5.773320 7.351758 -20.511941 0.248346 0.299222 -53.404006 -0.000003 0.000001 0.000003 0.000004 -0.000002 0.000001 3.778678 7.559639 -24.581255 -73.831422 -14.404396 -24.052238 -51.826164 60.836693 47.494895 9.141613 7.948714 -22.976022 -13.975071 13.836823 -0.527696 10.118374 -39.599456 -4.011394 0.000005 0.000000 0.000000 11.271646 3.607142 -9.674708 -0.308911 -0.132913 59.230171 -0.000001 -0.000000 -0.000003 5.407484 -9.717477 -10.964785 0.477125 -0.644340 52.079878 0.000004 -0.000003 -0.000001 4.999332 -19.199903 -5.805068 0.293146 -0.312925 63.639782 0.000000 -0.000003 -0.000002 10.206702 -27.451345 11.592837 0.317952 -0.173606 82.243872 -0.000000 -0.000002 -0.000002 0.000001 0.000002 0.000003 -0.000001 -0.000000 -0.000000 0.000000 -0.000001 -0.000000 -0.000001 -0.000000 -0.000000 -0.000001 -0.000000 -0.000000 -0.000001 -0.000000 -0.000000 0.000000 -0.000001 -0.000000 -0.000001 -0.000000 -0.000000 -0.000001 -0.000000 -0.000000 -0.000001 -0.000000 -0.000000 0.000000 -0.000001 -0.000000 -0.000000 -0.000001 -0.000000 -0.000000 -0.000001 -0.000000 -0.000000 -0.000001 -0.000000 
-0.187136 97.432312 3.180000 5.533422 -20.371773 10.847044 -0.000000 0.000002 -0.000000 -85.263888 -3.124338 23.531786 52.128516 -5.564387 -13.653850 11.166554 -7.437303 11.482835 -0.000000 0.000000 -0.000000 0.000000 -0.000001 -0.000000 -94.720763 3.785166 10.123747 124.010991 -9.615845 -2.428229 24.174884 1.643654 0.210454 0.000001 0.000001 -0.000001 0.000000 -0.000000 0.000000 34.091783 -6.329232 -11.065289 -1.705505 -0.826088 -1.172770 -1.718730 -1.101915 -0.901945 -26.754455 7.923674 9.300322 17.616747 14.580975 -17.741030 0.000001 -0.000000 0.000000 0.000001 -0.000000 0.000000 0.000001 -0.000000 0.000001 0.000001 -0.000000 0.000000 0.000001 -0.000001 -0.000000 0.000001 -0.000000 0.000000 0.000001 -0.000001 -0.000000 0.000001 -0.000000 0.000000 0.000001 -0.000000 0.000000 13.329972 -28.376434 28.717349 -55.448582 15.227885 10.991233 -68.123692 -71.308158 -47.693012 11.233200 4.906526 -1.251276 -4.209880 -7.549295 8.222476 2.840286 18.399225 -2.238937 0.000001 0.000001 -0.000003 13.557223 -2.399521 2.530740 -0.158558 0.312322 -41.632274 0.000001 0.000003 -0.000001 8.872454 -0.946793 -8.589845 0.333086 0.702597 -39.040473 -0.000000 -0.000002 0.000000 6.418080 2.639997 -21.526852 0.073518 0.361155 -37.984919 0.000000 -0.000001 -0.000000 -5.768896 7.348698 -20.334966 0.247765 0.298828 -53.267317 0.000001 -0.000006 0.000000 0.000002 -0.000000 -0.000002 3.694515 8.731534 -22.067284 -77.217665 -16.836298 -27.351931 -55.432374 62.389796 51.618045 16.842381 16.542153 -19.530842 -13.852496 13.688650 -0.611940 9.965759 -39.155159 -3.888423 -0.000003 0.000001 0.000000 11.276156 3.678398 -9.745176 -0.306515 -0.132111 58.914671 0.000003 -0.000001 -0.000002 5.433452 -9.621389 -11.002380 0.474240 -0.645751 51.742132 -0.000003 0.000000 -0.000001 5.046114 -19.088473 -5.820357 0.290785 -0.313050 63.102301 -0.000000 -0.000001 -0.000002 10.132948 -27.291942 11.300283 0.315806 -0.176105 81.291300 0.000001 0.000006 -0.000002 -0.000001 0.000001 0.000003 -0.000001 0.000000 -0.000001 0.000000 0.000000 0.000000 -0.000001 0.000000 -0.000001 -0.000001 0.000000 -0.000001 -0.000001 0.000000 -0.000001 0.000000 0.000000 -0.000000 -0.000001 0.000000 -0.000001 -0.000001 0.000000 -0.000001 -0.000001 0.000000 -0.000001 0.000000 0.000000 -0.000000 -0.000000 0.000002 -0.000000 -0.000000 0.000002 -0.000000 -0.000000 0.000002 -0.000000 
-0.282183 97.299309 6.598036 5.186882 -20.590365 10.692122 -0.000000 -0.000001 0.000000 -82.379601 -3.257988 21.779656 49.649519 -3.689517 -13.001477 12.456522 -8.164984 10.899555 0.000002 -0.000000 -0.000002 -0.000001 0.000000 -0.000000 -94.186915 3.671713 9.699687 119.812474 -10.317573 -2.436461 24.651768 1.112021 3.786240 0.000005 -0.000001 -0.000001 -0.000000 0.000001 -0.000000 33.248917 -6.417059 -10.810763 -1.359169 -0.996959 -1.581734 -1.479999 -1.199189 -0.910617 -25.746991 7.766828 9.873797 17.083722 15.326017 -18.187470 -0.000001 0.000000 0.000000 -0.000001 0.000000 0.000000 -0.000001 0.000000 0.000001 -0.000001 0.000000 0.000000 -0.000001 0.000000 -0.000000 -0.000001 0.000000 0.000000 -0.000001 0.000000 -0.000000 -0.000001 0.000000 0.000000 -0.000001 0.000000 0.000000 11.862440 -27.977717 26.191836 -55.866009 16.656007 11.417592 -90.273770 -72.339988 -70.563565 19.159068 8.441118 -6.769438 -4.203525 -7.550144 8.223044 2.839355 18.402341 -2.238595 0.000001 0.000001 -0.000003 13.555467 -2.396726 2.784491 -0.158633 0.312144 -41.417953 0.000001 0.000000 0.000002 8.872079 -0.947104 -8.279683 0.331994 0.701594 -38.784840 -0.000000 0.000001 -0.000001 6.418732 2.637045 -21.143305 0.072415 0.359716 -37.674237 -0.000002 0.000002 0.000001 -5.757117 7.340636 -19.839318 0.246133 0.297679 -52.881042 -0.000000 -0.000002 -0.000001 -0.000001 0.000006 -0.000003 3.769987 11.074704 -19.093292 -80.238713 -18.402077 -30.381573 -59.729321 63.810072 56.438854 22.161751 22.494994 -18.508148 -13.517971 13.281410 -0.839651 9.540054 -37.919496 -3.541098 -0.000004 0.000000 0.000003 11.289806 3.880607 -9.945026 -0.299528 -0.129939 58.013865 -0.000003 0.000001 0.000001 5.507128 -9.351069 -11.108380 0.465963 -0.649688 50.784085 0.000003 -0.000001 0.000001 5.176594 -18.778297 -5.863758 0.284166 -0.313275 61.589967 0.000003 0.000001 -0.000001 9.940343 -26.854702 10.500332 0.309563 -0.182912 78.639335 -0.000002 0.000001 0.000001 0.000002 0.000000 0.000001 -0.000001 -0.000001 0.000001 0.000000 0.000001 0.000000 -0.000001 -0.000001 -0.000000 -0.000001 -0.000001 -0.000000 -0.000001 -0.000001 0.000001 0.000000 0.000001 -0.000000 -0.000001 -0.000001 -0.000000 -0.000001 -0.000001 -0.000000 -0.000001 -0.000001 0.000001 0.000000 0.000001 -0.000000 -0.000000 -0.000001 0.000000 -0.000000 -0.000001 0.000000 -0.000000 -0.000001 0.000000 
-0.438677 97.068863 9.971033 4.829673 -20.993326 10.614714 -0.000000 0.000000 0.000000 -79.041346 -4.202054 19.797831 46.805275 -1.204361 -12.188117 13.963699 -8.978137 9.999401 -0.000001 0.000000 0.000000 -0.000001 -0.000001 -0.000000 -91.897880 3.951044 8.685389 114.501804 -9.336612 -2.298779 24.336551 -0.780274 7.850139 -0.000003 0.000000 -0.000000 0.000000 -0.000000 -0.000000 31.914995 -6.347548 -10.433008 -0.846941 -1.225809 -2.282627 -0.947543 -1.280959 -1.065721 -24.462881 7.530891 10.745749 16.255903 16.199313 -18.782568 -0.000000 -0.000001 -0.000001 -0.000000 -0.000001 -0.000001 -0.000000 -0.000001 -0.000000 -0.000000 -0.000001 -0.000000 -0.000000 0.000000 -0.000001 -0.000000 -0.000001 -0.000000 -0.000000 0.000000 -0.000001 -0.000000 -0.000001 -0.000001 -0.000000 -0.000001 -0.000001 9.913588 -27.228081 23.284590 -55.741051 16.364892 11.372923 -102.459026 -71.986007 -83.327891 24.322517 9.290141 -10.411717 -4.193067 -7.551372 8.223958 2.837669 18.407225 -2.238130 0.000002 0.000001 -0.000002 13.552900 -2.392280 3.184914 -0.158792 0.311827 -41.077751 0.000003 -0.000001 -0.000000 8.871432 -0.947712 -7.793592 0.330248 0.699880 -38.381278 0.000001 0.000000 0.000001 6.419548 2.632733 -20.547434 0.070585 0.357298 -37.187265 -0.000001 0.000000 0.000000 -5.740879 7.329644 -19.078033 0.243609 0.295874 -52.280809 0.000001 -0.000002 0.000003 0.000002 0.000001 -0.000004 3.679094 13.977359 -16.002227 -82.618269 -19.392435 -32.930545 -63.588747 64.803797 60.717192 25.040894 25.957309 -18.710099 -13.022052 12.669928 -1.171282 8.888085 -36.040371 -2.998065 -0.000000 0.000000 -0.000000 11.314044 4.196108 -10.256875 -0.288774 -0.126871 56.596641 -0.000000 -0.000001 0.000000 5.623091 -8.933876 -11.273164 0.452853 -0.655357 49.288417 0.000003 0.000000 -0.000004 5.376710 -18.306172 -5.932420 0.273751 -0.313150 59.252656 0.000003 0.000004 -0.000002 9.678790 -26.201512 9.310111 0.298895 -0.192541 74.597113 -0.000001 0.000004 0.000001 0.000001 -0.000003 0.000000 -0.000001 0.000000 -0.000000 0.000003 0.000000 -0.000000 -0.000001 0.000000 -0.000000 -0.000001 0.000000 -0.000000 -0.000001 0.000000 -0.000000 0.000003 0.000000 -0.000000 -0.000001 0.000000 -0.000000 -0.000001 0.000000 -0.000000 -0.000001 0.000000 -0.000000 0.000003 0.000000 -0.000000 -0.000000 0.000000 0.000000 -0.000000 0.000000 0.000000 -0.000000 0.000000 0.000000 
